<?xml version="1.0" standalone="no"?>
<!DOCTYPE svg PUBLIC "-//W3C//DTD SVG 20010904//EN"
 "http://www.w3.org/TR/2001/REC-SVG-20010904/DTD/svg10.dtd">
<svg version="1.0" xmlns="http://www.w3.org/2000/svg"
 width="373.000000pt" height="203.000000pt" viewBox="0 0 373.000000 203.000000"
 preserveAspectRatio="xMidYMid meet">
<metadata>
Created by potrace 1.14, written by Peter Selinger 2001-2017
</metadata>
<g transform="translate(0.000000,203.000000) scale(0.100000,-0.100000)"
fill="#000000" stroke="none">
<path d="M1610 1985 c-539 -60 -983 -296 -1176 -625 -237 -403 -51 -854 466
-1128 180 -96 387 -161 630 -199 161 -25 502 -25 659 0 575 91 998 355 1149
719 112 269 39 558 -202 799 -325 325 -939 499 -1526 434z m575 -59 c403 -63
719 -208 931 -428 84 -87 125 -146 166 -235 213 -470 -186 -971 -910 -1143
-139 -33 -269 -50 -432 -57 -867 -33 -1600 432 -1557 989 22 286 265 565 634
727 200 88 363 128 663 165 73 9 409 -3 505 -18z"/>
<path d="M2655 1188 c-63 -37 -90 -95 -90 -193 0 -102 26 -154 92 -186 78 -38
193 -10 193 46 0 30 -1 30 -42 5 -37 -22 -85 -26 -122 -8 -56 25 -85 154 -52
232 30 72 107 97 174 56 41 -25 42 -25 42 5 0 58 -123 85 -195 43z"/>
<path d="M795 1188 c-3 -7 -4 -97 -3 -198 l3 -185 70 -3 c160 -7 235 59 235
206 0 70 -28 129 -76 162 -31 20 -51 25 -130 28 -74 4 -95 1 -99 -10z m206
-65 c71 -71 55 -225 -26 -259 -36 -15 -124 -19 -126 -6 -5 30 -7 277 -2 289 5
12 18 14 65 11 49 -4 64 -9 89 -35z"/>
<path d="M1350 1000 l0 -200 25 0 25 0 0 173 1 172 68 -170 c60 -149 72 -170
93 -173 22 -3 29 9 93 169 l70 172 5 -169 5 -169 28 -3 27 -3 -2 198 -3 198
-37 3 c-46 4 -47 1 -123 -181 -32 -75 -59 -136 -61 -134 -2 2 -31 70 -64 152
-33 82 -65 152 -72 157 -7 4 -28 8 -45 8 l-33 0 0 -200z"/>
<path d="M2085 1013 c-37 -104 -70 -194 -73 -201 -3 -10 3 -13 23 -10 24 3 31
11 45 53 l17 50 85 3 85 3 19 -53 c16 -45 23 -53 47 -56 15 -2 27 0 27 3 0 4
-32 94 -72 201 l-71 194 -32 0 -32 0 -68 -187z"/>
</g>
</svg>
